<?xml version="1.0" standalone="no"?>
<!DOCTYPE svg PUBLIC "-//W3C//DTD SVG 20010904//EN"
 "http://www.w3.org/TR/2001/REC-SVG-20010904/DTD/svg10.dtd">
<svg version="1.0" xmlns="http://www.w3.org/2000/svg"
 width="1024.000000pt" height="1024.000000pt" viewBox="0 0 1024.000000 1024.000000"
 preserveAspectRatio="xMidYMid meet">
<metadata>
Created by potrace 1.14, written by Peter Selinger 2001-2017
</metadata>
<g transform="translate(0.000000,1024.000000) scale(0.100000,-0.100000)"
fill="#000000" stroke="none">
<path d="M1946 9578 c-3 -13 -6 -154 -6 -315 0 -252 -2 -294 -16 -307 -13 -14
-55 -16 -308 -16 -214 0 -295 -3 -304 -12 -9 -9 -12 -90 -12 -304 0 -253 -2
-295 -16 -308 -13 -14 -55 -16 -307 -16 -161 0 -302 -3 -314 -6 l-23 -6 0
-3168 0 -3168 23 -6 c12 -3 153 -6 313 -6 268 0 292 -1 307 -18 15 -16 17 -57
19 -318 l3 -299 300 -2 c292 -3 300 -4 318 -24 15 -19 17 -51 17 -330 l0 -309
3180 0 3180 0 0 309 c0 279 2 311 18 330 17 20 25 21 317 24 l300 2 5 301 c4
235 8 305 19 317 12 15 48 17 327 17 l314 0 0 3180 0 3180 -314 0 c-279 0
-315 2 -327 17 -11 12 -15 82 -19 317 l-5 301 -299 3 c-261 2 -302 4 -318 19
-17 15 -18 39 -18 307 0 160 -3 301 -6 314 l-6 22 -3168 0 -3168 0 -6 -22z
m2649 -1248 c40 -6 26 -8 -72 -9 -75 0 -123 -5 -123 -11 0 -5 18 -10 40 -10
38 0 40 -2 40 -30 l0 -30 -80 0 -80 0 0 -40 0 -40 -80 0 -80 0 0 -40 0 -40
-80 0 -80 0 0 -40 0 -40 -120 0 -120 0 0 -40 0 -40 -40 0 -40 0 0 -40 0 -40
-120 0 -120 0 0 -40 0 -40 -40 0 -40 0 0 -40 0 -40 -120 0 -120 0 0 -40 0 -40
-40 0 -40 0 0 -40 0 -40 -120 0 -120 0 0 -40 0 -40 -40 0 -40 0 0 -40 0 -40
-90 0 -90 0 0 153 c0 136 2 156 18 170 16 15 57 17 318 19 l299 3 5 308 c4
259 7 309 20 317 18 12 1322 12 1395 0z m2449 -6 c14 -14 16 -54 14 -327 l-3
-312 -47 -3 c-29 -2 -48 1 -48 7 0 6 -18 11 -40 11 -38 0 -40 2 -40 30 0 28
-2 30 -40 30 l-40 0 0 40 0 40 -120 0 -120 0 0 40 0 40 -40 0 -40 0 0 40 0 40
-120 0 -120 0 0 40 0 40 -80 0 -80 0 0 40 0 40 -80 0 -80 0 0 40 0 40 -80 0
-80 0 0 30 c0 28 2 30 40 30 22 0 40 5 40 10 0 6 -49 11 -122 12 -88 1 -110 3
-78 8 25 4 347 8 717 8 601 2 673 0 687 -14z m-1844 -124 l0 -40 120 0 120 0
0 40 0 40 80 0 80 0 0 -40 0 -40 120 0 120 0 0 -40 0 -40 80 0 80 0 0 -40 0
-40 40 0 40 0 0 -40 0 -40 80 0 80 0 0 -40 0 -40 -40 0 -40 0 0 -40 0 -40 -40
0 -40 0 0 -40 0 -40 -120 0 -120 0 0 -40 0 -40 -40 0 -40 0 0 -40 0 -40 40 0
40 0 0 -40 0 -40 80 0 80 0 0 -120 0 -120 40 0 40 0 0 -40 0 -40 -40 0 -40 0
0 -44 0 -43 -106 -6 c-64 -3 -109 -10 -114 -16 -4 -7 -6 -93 -4 -191 1 -104
-2 -180 -7 -180 -5 0 -9 -18 -9 -40 l0 -40 -80 0 -80 0 0 40 0 40 -80 0 -80 0
0 -40 0 -40 -120 0 -120 0 0 40 0 40 -80 0 -80 0 0 -40 0 -40 -120 0 -120 0 0
40 0 40 -80 0 -80 0 0 -40 0 -40 -120 0 -120 0 0 40 0 40 -40 0 -40 0 0 40 0
40 -40 0 -40 0 0 40 0 40 40 0 40 0 0 40 0 40 -80 0 -80 0 0 40 0 40 40 0 40
0 0 80 0 80 -40 0 -40 0 0 40 0 40 40 0 40 0 0 80 0 80 -40 0 -40 0 0 40 0 40
120 0 120 0 0 40 0 40 40 0 40 0 0 40 0 40 -40 0 -40 0 0 40 0 40 -120 0 -120
0 0 40 0 40 -40 0 -40 0 0 40 0 40 -40 0 -40 0 0 40 0 40 80 0 80 0 0 40 0 40
40 0 40 0 0 40 0 40 280 0 280 0 0 40 0 40 120 0 120 0 0 40 0 40 80 0 80 0 0
-40z m-1600 -560 l0 -40 40 0 40 0 0 -40 0 -40 120 0 120 0 0 -40 0 -40 -80 0
-80 0 0 -40 0 -40 40 0 40 0 0 -40 0 -40 40 0 40 0 0 -40 0 -40 -40 0 -40 0 0
-120 0 -120 40 0 40 0 0 -80 0 -80 -80 0 -80 0 0 -40 0 -40 40 0 40 0 0 -80 0
-80 -80 0 -80 0 0 -40 0 -40 -120 0 -120 0 0 40 0 40 -80 0 -80 0 0 40 0 40
-80 0 -80 0 0 40 0 40 -80 0 -80 0 0 40 0 40 80 0 80 0 0 40 0 40 -80 0 -80 0
0 40 0 40 -40 0 -40 0 0 40 0 40 -40 0 -40 0 0 40 0 40 40 0 40 0 0 40 0 40
-40 0 -40 0 0 40 0 40 40 0 40 0 0 40 0 40 40 0 40 0 0 40 0 40 80 0 80 0 0
40 0 40 80 0 80 0 0 40 0 40 80 0 80 0 0 40 0 40 80 0 80 0 0 -40z m2810 -357
c0 -131 -4 -232 -9 -225 -6 10 -10 10 -21 -3 -9 -11 -31 -15 -76 -15 l-64 0 0
40 0 40 -40 0 -40 0 0 40 0 40 80 0 80 0 0 40 0 40 -80 0 -80 0 0 40 0 40 40
0 40 0 0 40 0 40 40 0 40 0 0 40 0 40 45 0 45 0 0 -237z m-4407 -4084 l82 -1
-55 -9 c-60 -9 -111 -3 -122 15 -10 15 -10 3809 0 3833 4 10 8 -849 10 -1909
l2 -1928 83 -1z m45 3844 c-21 -2 -57 -2 -80 0 -24 2 -7 4 37 4 44 0 63 -2 43
-4z m6230 0 c-21 -2 -57 -2 -80 0 -24 2 -7 4 37 4 44 0 63 -2 43 -4z m62
-1923 c0 -1048 -4 -1910 -8 -1916 -11 -18 -62 -24 -122 -15 l-55 9 83 1 82 1
0 1928 c0 1248 4 1922 10 1912 6 -10 10 -707 10 -1920z m-5700 1320 l0 -40
120 0 120 0 0 -40 0 -40 80 0 80 0 0 -40 0 -40 40 0 40 0 0 -40 0 -40 80 0 80
0 0 -120 0 -120 40 0 40 0 0 -120 0 -120 -40 0 -40 0 0 -120 0 -120 -40 0 -40
0 0 40 0 40 -40 0 -40 0 0 -120 0 -120 40 0 40 0 0 -40 0 -40 80 0 80 0 0 80
0 80 40 0 40 0 0 -40 0 -40 120 0 120 0 0 -40 0 -40 40 0 40 0 0 320 0 320 80
0 80 0 0 -40 0 -40 120 0 120 0 0 -40 0 -40 80 0 80 0 0 -40 0 -40 40 0 40 0
0 -40 c0 -38 1 -40 31 -40 l31 0 -7 -80 c-6 -70 -5 -80 9 -80 14 0 16 -16 16
-112 0 -62 -4 -120 -10 -128 -7 -11 -39 -14 -162 -15 -84 0 -206 4 -270 9
l-118 9 0 39 0 38 -80 0 -80 0 0 -120 0 -120 38 0 39 0 6 -122 c4 -66 7 -172
7 -234 0 -107 -1 -114 -22 -126 -17 -9 -101 -13 -311 -13 -239 -1 -290 -4
-298 -16 -5 -8 -9 -84 -9 -170 0 -199 -8 -279 -27 -279 -12 0 -14 -14 -11 -67
3 -68 3 -68 -24 -71 l-28 -3 0 110 0 111 -40 0 -40 0 0 40 0 40 -40 0 -40 0 0
120 0 120 -80 0 -80 0 0 40 0 40 -40 0 -40 0 0 160 0 160 40 0 40 0 0 40 0 40
80 0 80 0 0 120 0 120 -40 0 -40 0 0 40 0 40 -80 0 -80 0 0 -80 0 -80 -40 0
-40 0 0 40 0 40 -120 0 -120 0 0 40 0 40 -40 0 -40 0 0 40 0 40 -40 0 -40 0 0
80 0 80 -40 0 -40 0 0 160 0 160 40 0 40 0 0 80 0 80 40 0 40 0 0 120 0 120
40 0 40 0 0 80 0 80 80 0 80 0 0 80 0 80 40 0 40 0 0 -40z m1760 0 l0 -40 120
0 120 0 0 40 0 40 80 0 80 0 0 -40 0 -40 120 0 120 0 0 40 0 40 80 0 80 0 0
-40 0 -40 120 0 120 0 0 40 0 40 80 0 80 0 0 -35 c0 -34 -1 -35 -42 -37 -24
-1 11 -5 77 -8 118 -6 116 -6 -80 -10 -110 -3 -244 -3 -298 -1 -65 2 -102 -1
-112 -9 -11 -9 -13 -32 -8 -116 4 -61 1 -154 -7 -224 l-13 -120 -118 0 -119 0
0 40 0 40 -240 0 -240 0 0 40 0 40 -80 0 -80 0 0 40 0 40 -80 0 -80 0 0 40 0
40 -40 0 -40 0 0 40 0 40 40 0 40 0 0 40 0 40 120 0 120 0 0 40 0 40 40 0 40
0 0 -40z m3120 -130 l0 -70 120 0 120 0 0 -80 0 -80 80 0 80 0 0 -40 0 -40
-40 0 -40 0 0 -40 0 -40 40 0 40 0 0 -120 0 -120 80 0 80 0 0 -80 0 -80 -40 0
-40 0 0 -40 0 -40 -40 0 -40 0 0 -120 0 -120 -40 0 -40 0 0 -40 0 -40 -40 0
-40 0 0 80 0 80 -120 0 -120 0 0 80 0 80 -80 0 -80 0 0 -40 0 -40 -40 0 -40 0
0 120 0 120 -40 0 -40 0 0 -40 0 -40 -40 0 -40 0 0 120 0 120 -47 0 c-37 0
-44 3 -35 12 7 7 12 40 12 80 0 54 3 68 15 68 11 0 15 11 15 40 0 33 3 40 20
40 19 0 20 7 20 120 l0 120 80 0 80 0 0 40 0 40 80 0 80 0 0 30 c0 28 2 30 40
30 l40 0 0 -70z m-480 -595 l0 -35 -80 0 c-79 0 -80 0 -80 25 0 22 4 25 38 26
20 1 51 5 67 9 52 13 55 12 55 -25z m-560 -155 l0 -120 -35 0 -35 0 0 80 c0
52 4 80 11 80 7 0 10 15 7 40 -3 38 -2 40 24 40 l28 0 0 -120z m400 -320 l0
-120 40 0 40 0 0 40 0 40 40 0 40 0 0 40 0 40 40 0 40 0 0 -120 0 -120 80 0
80 0 0 -80 0 -80 80 0 80 0 0 40 0 40 40 0 40 0 0 -240 0 -240 -40 0 -40 0 0
-40 0 -40 -80 0 -80 0 0 -160 0 -160 -80 0 -80 0 0 -160 0 -160 -120 0 -120 0
0 -160 0 -160 -80 0 -80 0 0 80 0 80 -40 0 -40 0 0 -40 0 -40 -80 0 -80 0 0
80 0 80 -80 0 -80 0 0 80 0 80 -120 0 -120 0 0 -40 0 -40 -80 0 -80 0 0 120 0
120 80 0 80 0 0 120 0 120 40 0 40 0 0 160 0 160 40 0 40 0 0 40 0 40 40 0 40
0 0 120 0 120 40 0 40 0 0 40 0 40 80 0 80 0 0 40 0 40 80 0 80 0 0 120 0 120
40 0 40 0 0 40 0 40 40 0 40 0 0 -120z m-720 -130 c0 -5 18 -10 40 -10 38 0
40 -2 40 -30 0 -28 -2 -30 -40 -30 l-40 0 0 -40 0 -40 -40 0 -40 0 0 -40 0
-40 40 0 40 0 0 -40 0 -40 -40 0 -40 0 0 -40 0 -40 -40 0 -40 0 0 -40 0 -40
-40 0 -40 0 0 -120 0 -120 -40 0 -40 0 0 -40 0 -40 -40 0 -40 0 0 -120 0 -120
-80 0 -80 0 0 -40 0 -40 -40 0 -40 0 0 80 0 80 -120 0 -120 0 0 80 0 80 40 0
40 0 0 40 0 40 40 0 c38 0 40 2 40 30 0 28 2 30 40 30 22 0 40 5 40 11 0 7 37
9 112 7 83 -2 112 0 116 10 2 6 7 10 12 7 4 -3 10 9 12 26 3 16 1 32 -4 35
-14 9 -10 538 4 552 15 15 388 17 388 2z m-3920 -350 l0 -40 40 0 40 0 0 -40
0 -40 40 0 40 0 0 -40 0 -40 40 0 40 0 0 -120 0 -120 80 0 80 0 0 -40 0 -40
40 0 40 0 0 -120 0 -120 40 0 40 0 0 -40 0 -40 80 0 80 0 0 -39 0 -38 -67 -6
c-38 -4 -121 -9 -186 -13 -68 -4 -121 -11 -125 -18 -4 -6 -7 -54 -7 -106 0
-52 -1 -150 -2 -217 l-3 -123 -45 0 -45 0 0 80 0 80 -40 0 -40 0 0 80 0 80
-40 0 -40 0 0 40 0 40 -40 0 -40 0 0 120 0 120 -40 0 -40 0 0 400 0 400 40 0
40 0 0 -40z m5680 -200 l0 -80 80 0 80 0 0 -200 0 -200 -40 0 -40 0 0 -40 0
-40 -40 0 -40 0 0 -160 0 -160 -80 0 -80 0 0 -160 0 -160 -120 0 -120 0 0 -40
0 -40 -40 0 -40 0 0 -40 0 -40 -40 0 -40 0 0 -40 0 -40 -40 0 -40 0 0 -120 0
-120 -80 0 -80 0 0 80 0 80 -40 0 -40 0 0 -40 0 -40 -40 0 -40 0 0 40 0 40
-40 0 -40 0 0 80 0 80 80 0 80 0 0 40 0 40 40 0 40 0 0 120 0 120 40 0 40 0 0
40 0 40 40 0 40 0 0 120 0 120 40 0 40 0 0 40 0 40 40 0 40 0 0 40 0 40 40 0
40 0 0 120 0 120 80 0 80 0 0 40 0 40 40 0 40 0 0 160 0 160 80 0 80 0 0 -80z
m-3200 -1080 l0 -40 40 0 40 0 0 -40 0 -40 80 0 80 0 0 -40 0 -40 -40 0 -40 0
0 -40 0 -40 40 0 40 0 0 -280 0 -280 -40 0 -40 0 0 -40 0 -40 40 0 40 0 0 -40
0 -40 -80 0 -80 0 0 40 0 40 -40 0 -40 0 0 -120 0 -120 -40 0 -40 0 0 40 0 40
-120 0 -120 0 0 40 0 40 -120 0 -120 0 0 -40 0 -40 80 0 80 0 0 -40 0 -40
-120 0 -120 0 0 40 0 40 -80 0 -80 0 0 40 0 40 -41 0 -40 0 3 38 c3 35 5 37
41 40 36 3 37 4 37 43 0 38 -1 39 -33 39 l-33 0 -12 103 c-7 56 -11 129 -11
162 l2 60 7 -45 7 -45 1 43 c2 41 3 42 37 42 l35 0 0 80 0 80 120 0 120 0 0
40 0 40 144 0 c171 0 176 3 176 102 0 36 4 58 11 58 8 0 9 24 4 80 l-7 80 116
0 116 0 0 -40z m800 -120 l0 -80 40 0 40 0 0 40 0 40 160 0 160 0 0 -40 0 -40
-40 0 -40 0 0 -40 0 -40 80 0 80 0 0 40 0 40 40 0 40 0 0 -120 0 -120 40 0 40
0 0 40 0 40 40 0 40 0 0 -120 0 -120 40 0 40 0 0 -120 0 -120 40 0 40 0 0 80
0 80 40 0 40 0 0 -120 0 -120 -40 0 -40 0 0 -40 0 -40 -80 0 -80 0 0 -40 0
-40 -80 0 -80 0 0 40 0 40 -160 0 -160 0 0 40 0 40 -120 0 -120 0 0 80 0 80
-120 0 -120 0 0 320 0 320 40 0 40 0 0 40 0 40 80 0 80 0 0 -80z m2180 -634
c0 -127 -3 -157 -16 -170 -13 -14 -55 -16 -308 -16 -214 0 -295 -3 -304 -12
-9 -9 -12 -90 -12 -304 0 -253 -2 -295 -16 -308 -14 -14 -89 -16 -682 -15
-367 0 -689 4 -717 9 -40 6 -26 8 73 9 115 1 122 2 122 21 0 17 -7 20 -40 20
-33 0 -40 3 -40 20 0 18 7 20 80 20 l80 0 0 40 0 40 120 0 120 0 0 40 0 40 40
0 40 0 0 40 0 40 120 0 120 0 0 40 0 40 40 0 40 0 0 40 0 40 120 0 120 0 0 40
0 40 40 0 40 0 0 40 0 40 120 0 120 0 0 40 0 40 80 0 80 0 0 40 0 40 80 0 80
0 0 40 0 40 80 0 80 0 0 40 0 40 50 0 50 0 0 -154z m-4420 -176 c0 -5 18 -10
40 -10 38 0 40 -2 40 -30 0 -28 2 -30 40 -30 l40 0 0 -40 0 -40 120 0 120 0 0
-40 0 -40 40 0 40 0 0 -40 0 -40 120 0 120 0 0 -40 0 -40 40 0 40 0 0 -40 0
-40 120 0 120 0 0 -40 0 -40 80 0 80 0 0 -30 c0 -28 -2 -30 -40 -30 -22 0 -40
-4 -40 -10 0 -6 48 -11 123 -11 98 -1 112 -3 72 -9 -27 -5 -350 -9 -717 -9
-593 -1 -668 1 -682 15 -14 13 -16 57 -16 323 0 169 3 311 7 314 10 11 93 8
93 -3z"/>
<path d="M4560 7560 l0 -40 40 0 40 0 0 -40 0 -40 80 0 80 0 0 40 0 40 40 0
40 0 0 40 0 40 -160 0 -160 0 0 -40z"/>
<path d="M4960 7560 l0 -40 160 0 160 0 0 40 0 40 -160 0 -160 0 0 -40z"/>
<path d="M5360 7560 l0 -40 40 0 40 0 0 -40 0 -40 80 0 80 0 0 40 0 40 40 0
40 0 0 40 0 40 -160 0 -160 0 0 -40z"/>
<path d="M6393 7160 c0 -25 2 -35 4 -22 2 12 2 32 0 45 -2 12 -4 2 -4 -23z"/>
<path d="M2960 5320 l0 -40 -40 0 -40 0 0 -40 0 -40 40 0 40 0 0 -40 0 -40 40
0 40 0 0 -40 0 -40 40 0 40 0 0 120 0 120 -40 0 -40 0 0 40 0 40 -40 0 -40 0
0 -40z"/>
<path d="M6080 2520 l0 -40 40 0 40 0 0 40 0 40 -40 0 -40 0 0 -40z"/>
</g>
</svg>
